DataType=double
version=3
OpenSimVersion=4.5-2023-11-26-efcdfd3eb
endheader
time	EMG01_right_gast_med	EMG02_right_glut_max	EMG03_left_gast_med	EMG04_left_glut_max	EMG05_right_glut_med	EMG06_right_bic_fem	EMG07_right_rect_fem	EMG08_right_vast_lat	EMG09_right_vast_med	EMG10_right_tens_fasc_lat	EMG11_left_glut_med	EMG12_left_bic_fem	EMG13_left_rect_fem	EMG14_left_vast_lat	EMG15_left_vast_med	EMG16_left_tens_fasc_lat
0.75	-1.420006250027046	61.98771411008998	27.18844847096715	40.85060966310411	166.2423446268023	15.02371460872026	4.028084144942881	8.584745209763334	15.45445493838135	37.44146473440074	15.0351120728791	9.366103703684994	19.14143141505555	20.76139379741513	73.26201469672384	158.4904141078888
0.76	-2.352108470531336	62.03149946769599	29.44215141160564	39.9041095671314	158.4340814428695	15.98580437480472	3.878149599277792	8.38273898520422	14.51125079542248	35.54043094227559	14.73215911638637	8.684851291124559	17.96517244196491	19.53614117246524	70.62500180708469	158.4789061595347
0.77	-3.006783617196871	61.78137423870556	31.9875200948773	38.87191270705386	150.2416435194995	17.02575453873503	3.747237903180723	8.179103627188997	13.54997089665943	33.65413723195788	14.43393372769065	8.080231338956674	16.80438738911184	18.31410785576854	67.8463184789703	158.014097307366
0.78	-3.407651203765017	61.2451129396677	34.82415391655945	37.75892096668023	141.7633622067617	18.14587590065661	3.636880489826776	7.978416320703511	12.58649873161528	31.79886576499928	14.14252340579857	7.556245284357177	15.6696663745281	17.10466783007429	64.95396557899925	157.0895913475527
0.79	-3.579269027908757	60.43406685508265	37.94694999093296	36.57057227120323	133.0994334499794	19.34833753053239	3.54850184783932	7.785490968734328	11.63777450468298	29.98977915406622	13.85957236405043	7.115597373899001	14.57076104362884	15.91671280610865	61.97591307873923	155.7023907760927
0.8	-3.546680327477235	59.36292101704432	41.34585083913212	35.31284824228821	124.3505059888496	20.63507988553993	3.483401313835621	7.605301505883754	10.72157079540602	28.24084382193741	13.58626689559979	6.759672928311863	13.51647247750803	14.75855617906328	58.93969480717962	153.853046822726
0.8100000000000001	-3.334985107525744	58.04940714694909	45.00566313568219	33.99229451082239	115.6163079860563	22.00772227368467	3.44273466864605	7.442901599535493	9.856256154952407	26.5647690927105	13.32333113500068	6.488535889756452	12.51456061112317	13.63784997701611	55.87204108346121	151.5457794426903
0.82	-2.96894186815869	56.51398171183917	48.90595858116188	32.61605195701923	106.9943354792146	23.46746578771646	3.427496062085419	7.303342669547932	9.060549871699546	24.97296085365963	13.07103353770629	6.300945712990243	11.57167612406995	12.56151615297963	52.79855637883153	148.7885650819723
0.83	-2.472605114934413	54.77947742548007	53.02106732790696	31.1918958608495	98.57862222451348	25.01499323136904	3.438500767342612	7.191592095425413	8.353270830073956	23.47548964150713	12.82920439187736	6.194393429790987	10.69331519293581	11.53569308496144	49.74344719755964	145.5931913240704
0.84	-1.86900311555388	52.87073568712869	57.32017311629804	29.72827887609983	90.45860615932359	26.65036838230272	3.476369239204559	7.112453366747892	7.753083129519145	22.08107341014829	12.59726445627711	6.165156474131055	9.88379691769109	10.56569770592638	46.72930329220389	141.9752781090763
0.85	-1.179859325855862	50.81422675520352	61.76751734251022	28.23437311780047	82.71810336015332	28.37293770474155	3.541512910524268	7.070489750492605	7.278240882777208	20.7970750529705	12.37426438485821	6.208371610699561	9.14626271524874	9.656003277674667	43.77693317962403	137.9542652986881
0.86	-0.4253596290085285	48.6376637002998	66.32271680232269	26.72010643205217	75.43439645123895	30.18123778963486	3.63412209584645	7.069952798692753	6.946334353994701	19.62951420728402	12.15893405429891	6.318125082320854	8.482696522115214	8.810232410773324	40.90525288322237	133.5533662243901
0.87	0.3760339365984263	46.36961535754619	70.9411969825365	25.19618793769469	68.67744123367306	32.07291124427674	3.7541562810164	7.114716726657468	6.774039338952706	18.58309228986316	11.94974036795106	6.487558884547737	7.893964262404638	8.031164508230672	38.13122496798702	128.7994859683078
0.88	1.20772368439355	44.03912278650649	75.57473963295847	23.67411822741791	62.50919292593228	34.04463278550057	3.901336972294537	7.208219392040294	6.776871469813093	17.66122934475709	11.74495164079005	6.708991862944981	7.379870709687437	7.320756397206232	35.46984321620359	123.7231009530047
0.89	2.055072864958178	41.67532316034582	80.17214008183365	22.16618031682694	56.98305171790794	36.09204630391827	4.075143168100862	7.353410327548447	6.968947017354178	16.86611110007572	11.54270631242316	6.97405409473053	6.939231574334884	6.680174525404421	32.93415672083284	118.3580935764234
0.9	2.905461004087827	39.30708444357661	84.6799664304659	20.68540836987527	52.14342624758181	38.20971288771873	4.274809416213306	7.552706035485178	7.362751837096708	16.19874443901383	11.34108350333194	7.273832770750288	6.569958368726025	6.10983675940409	30.53532587994455	112.741533854486
0.91	3.748301271164046	36.96265374446152	89.04340931101784	19.24553205433866	48.02541308477047	40.39106919892411	4.499326353436228	7.807952530286109	7.968920373678121	15.65901923934228	11.13817282051698	7.599027542688487	6.269153383922482	5.609461616602225	28.28270198833164	106.9134008706366
0.92	4.575023545022977	34.66932199167004	93.20720714629971	17.86089500081495	44.654590239988	42.62839506216802	4.74744361476179	8.120394892497959	8.796027050142939	15.24577437930035	10.93214085264587	7.94011303417319	6.033212017615416	5.178122800214477	26.18392200668971	100.9162402294643
0.93	5.379027036683601	32.45310759730754	97.11662776989344	16.54634643854954	42.04692285721438	44.9127887420874	5.017675040845123	8.490653367059293	9.850392844962613	14.95686576526047	10.72129205100926	8.287505931600457	5.857929732525701	4.814307198619918	24.24501051155039	94.79475822844522
0.9399999999999999	6.155606395658308	30.33846190271434	100.7184831493604	15.31710576182564	40.20877925037536	47.23414843146942	5.30830616986101	8.918705346396798	11.13591029049549	14.78923441832839	10.50412222263002	8.63173379378134	5.73861103852246	4.515974936409445	22.47048149610745	88.59535783065375
